<svg width="18" height="17" viewBox="0 0 18 17" fill="none" xmlns="http://www.w3.org/2000/svg">
<path d="M15.5707 5.06895C13.3914 1.69984 8.94191 0.698214 5.49128 2.79252C2.13146 4.88683 1.04178 9.43968 3.22113 12.8088L3.40274 13.082L2.67629 15.8137L5.40047 15.0852L5.67289 15.2673C6.85337 15.9047 8.12465 16.269 9.39594 16.269C10.758 16.269 12.1201 15.9047 13.3006 15.1763C16.6604 12.9909 17.6593 8.52911 15.5707 5.06895V5.06895ZM13.6638 12.0803C13.3006 12.6267 12.8466 12.9909 12.2109 13.082C11.8477 13.082 11.3937 13.2641 9.57755 12.5356C8.03385 11.8072 6.76256 10.6234 5.8545 9.25757C5.30967 8.62017 5.03725 7.80066 4.94644 6.98114C4.94644 6.25269 5.21886 5.61529 5.67289 5.16C5.8545 4.97789 6.03612 4.88683 6.21773 4.88683H6.67176C6.85337 4.88683 7.03498 4.88683 7.12579 5.25106C7.3074 5.70635 7.76143 6.79903 7.76143 6.89009C7.85224 6.98114 7.85224 7.16326 7.76143 7.25431C7.85224 7.43643 7.76143 7.61854 7.67062 7.7096C7.57982 7.80066 7.48901 7.98277 7.39821 8.07383C7.21659 8.16488 7.12579 8.347 7.21659 8.52911C7.57982 9.07545 8.03385 9.62179 8.48788 10.0771C9.03271 10.5324 9.57755 10.8966 10.2132 11.1698C10.3948 11.2608 10.5764 11.2608 10.6672 11.0787C10.758 10.8966 11.2121 10.4413 11.3937 10.2592C11.5753 10.0771 11.6661 10.0771 11.8477 10.1681L13.3006 10.8966C13.4822 10.9877 13.6638 11.0787 13.7546 11.1698C13.8454 11.4429 13.8454 11.8072 13.6638 12.0803V12.0803Z" fill="black"/>
</svg>
