<svg width="18" height="18" viewBox="0 0 18 18" fill="none" xmlns="http://www.w3.org/2000/svg">
<path d="M8.85771 6.46031C7.62891 6.46031 6.62612 7.4631 6.62612 8.6919C6.62612 9.92069 7.62891 10.9235 8.85771 10.9235C10.0865 10.9235 11.0893 9.92069 11.0893 8.6919C11.0893 7.4631 10.0865 6.46031 8.85771 6.46031ZM15.5508 8.6919C15.5508 7.76779 15.5592 6.85205 15.5073 5.92962C15.4554 4.8582 15.2109 3.9073 14.4275 3.12382C13.6423 2.33867 12.6931 2.09592 11.6217 2.04402C10.6975 1.99213 9.78181 2.0005 8.85938 2.0005C7.93527 2.0005 7.01954 1.99213 6.09711 2.04402C5.02568 2.09592 4.07479 2.34034 3.2913 3.12382C2.50615 3.90898 2.2634 4.8582 2.21151 5.92962C2.15961 6.85373 2.16798 7.76946 2.16798 8.6919C2.16798 9.61433 2.15961 10.5317 2.21151 11.4542C2.2634 12.5256 2.50782 13.4765 3.2913 14.26C4.07646 15.0451 5.02568 15.2879 6.09711 15.3398C7.02121 15.3917 7.93695 15.3833 8.85938 15.3833C9.78349 15.3833 10.6992 15.3917 11.6217 15.3398C12.6931 15.2879 13.644 15.0434 14.4275 14.26C15.2126 13.4748 15.4554 12.5256 15.5073 11.4542C15.5608 10.5317 15.5508 9.616 15.5508 8.6919ZM8.85771 12.1255C6.9576 12.1255 5.42411 10.592 5.42411 8.6919C5.42411 6.79179 6.9576 5.25831 8.85771 5.25831C10.7578 5.25831 12.2913 6.79179 12.2913 8.6919C12.2913 10.592 10.7578 12.1255 8.85771 12.1255ZM12.4319 5.91958C11.9883 5.91958 11.63 5.56132 11.63 5.11768C11.63 4.67404 11.9883 4.31579 12.4319 4.31579C12.8756 4.31579 13.2338 4.67404 13.2338 5.11768C13.234 5.22303 13.2133 5.32736 13.173 5.42471C13.1328 5.52206 13.0737 5.61051 12.9992 5.685C12.9248 5.75949 12.8363 5.81855 12.739 5.85881C12.6416 5.89906 12.5373 5.91971 12.4319 5.91958Z" fill="#090505"/>
</svg>
