<svg width="18" height="18" viewBox="0 0 18 18" fill="none" xmlns="http://www.w3.org/2000/svg">
<path fill-rule="evenodd" clip-rule="evenodd" d="M6.73513 6.40632H9.38799V7.72775C9.77013 6.96775 10.7501 6.28489 12.2223 6.28489C15.0444 6.28489 15.7144 7.79775 15.7144 10.5735V15.7142H12.8573V11.2056C12.8573 9.62489 12.4751 8.73346 11.5023 8.73346C10.153 8.73346 9.59227 9.69417 9.59227 11.2049V15.7142H6.73513V6.40632ZM1.83585 15.5927H4.69299V6.28489H1.83585V15.5927ZM5.10228 3.24989C5.10238 3.48938 5.05489 3.72649 4.96255 3.94745C4.87022 4.16842 4.73489 4.36883 4.56442 4.53704C4.21899 4.88034 3.75143 5.0725 3.26442 5.07132C2.77827 5.07099 2.31179 4.87932 1.96585 4.53775C1.796 4.36897 1.66113 4.16834 1.56896 3.94734C1.47678 3.72635 1.42912 3.48934 1.42871 3.24989C1.42871 2.76632 1.62157 2.30347 1.96657 1.96204C2.3122 1.62001 2.77888 1.42825 3.26514 1.42847C3.75228 1.42847 4.21942 1.62061 4.56442 1.96204C4.90871 2.30347 5.10228 2.76632 5.10228 3.24989Z" fill="#090505"/>
</svg>
