<svg width="18" height="18" viewBox="0 0 18 18" fill="none" xmlns="http://www.w3.org/2000/svg">
<g clip-path="url(#clip0_276_745)">
<path d="M17.0311 3.52634C16.4346 3.79063 15.7939 3.9692 15.1203 4.04991C15.8153 3.63405 16.3353 2.97953 16.5832 2.20849C15.9302 2.59634 15.2156 2.86934 14.4703 3.01563C13.9692 2.48053 13.3054 2.12586 12.582 2.00668C11.8586 1.8875 11.1161 2.01048 10.4698 2.35652C9.82347 2.70257 9.30947 3.25232 9.0076 3.92042C8.70573 4.58852 8.63287 5.33759 8.80035 6.05134C7.47727 5.98491 6.18294 5.64102 5.00137 5.04199C3.8198 4.44296 2.77738 3.60217 1.94178 2.5742C1.65607 3.06706 1.49178 3.63848 1.49178 4.24706C1.49147 4.79491 1.62638 5.33437 1.88455 5.81758C2.14273 6.30078 2.51618 6.71279 2.97178 7.01705C2.44341 7.00024 1.92669 6.85747 1.46464 6.60062V6.64348C1.46459 7.41187 1.73038 8.15661 2.21691 8.75133C2.70345 9.34606 3.38076 9.75414 4.13393 9.90633C3.64377 10.039 3.12988 10.0585 2.63107 9.96348C2.84357 10.6246 3.25749 11.2028 3.8149 11.617C4.37231 12.0312 5.04529 12.2607 5.73964 12.2735C4.56095 13.1988 3.10527 13.7007 1.60678 13.6985C1.34134 13.6985 1.07613 13.683 0.8125 13.652C2.33355 14.63 4.10417 15.1491 5.91249 15.147C12.0339 15.147 15.3803 10.077 15.3803 5.67991C15.3803 5.53705 15.3768 5.39277 15.3703 5.24991C16.0213 4.77918 16.5831 4.19627 17.0296 3.52849L17.0311 3.52634Z" fill="#090505"/>
</g>
<defs>
<clipPath id="clip0_276_745">
<rect width="17.1428" height="17.1428" fill="white" transform="translate(0.143066)"/>
</clipPath>
</defs>
</svg>
