<svg width="16" height="16" viewBox="0 0 16 16" fill="none" xmlns="http://www.w3.org/2000/svg">
<g clip-path="url(#clip0_301_533)">
<path d="M7.44531 8.94531H4.54688V7.11719H7.44531C7.89323 7.11719 8.25781 7.04427 8.53906 6.89844C8.82031 6.7474 9.02604 6.53906 9.15625 6.27344C9.28646 6.00781 9.35156 5.70833 9.35156 5.375C9.35156 5.03646 9.28646 4.72135 9.15625 4.42969C9.02604 4.13802 8.82031 3.90365 8.53906 3.72656C8.25781 3.54948 7.89323 3.46094 7.44531 3.46094H5.35938V13H3.01562V1.625H7.44531C8.33594 1.625 9.09896 1.78646 9.73438 2.10938C10.375 2.42708 10.8646 2.86719 11.2031 3.42969C11.5417 3.99219 11.7109 4.63542 11.7109 5.35938C11.7109 6.09375 11.5417 6.72917 11.2031 7.26562C10.8646 7.80208 10.375 8.21615 9.73438 8.50781C9.09896 8.79948 8.33594 8.94531 7.44531 8.94531ZM10.3438 11.9141C10.3438 11.5807 10.4583 11.3021 10.6875 11.0781C10.9219 10.8542 11.2318 10.7422 11.6172 10.7422C12.0026 10.7422 12.3099 10.8542 12.5391 11.0781C12.7734 11.3021 12.8906 11.5807 12.8906 11.9141C12.8906 12.2474 12.7734 12.526 12.5391 12.75C12.3099 12.974 12.0026 13.0859 11.6172 13.0859C11.2318 13.0859 10.9219 12.974 10.6875 12.75C10.4583 12.526 10.3438 12.2474 10.3438 11.9141Z" fill="#090505"/>
</g>
<defs>
<clipPath id="clip0_301_533">
<rect width="16" height="16" fill="white"/>
</clipPath>
</defs>
</svg>
