<svg width="48" height="48" viewBox="0 0 48 48" fill="none" xmlns="http://www.w3.org/2000/svg">
<circle cx="24" cy="24" r="23" transform="rotate(-180 24 24)" stroke="black" stroke-width="2"/>
<path d="M27 13.5C27.3505 13.4993 27.6902 13.6214 27.96 13.845C28.1119 13.9709 28.2375 14.1256 28.3295 14.3001C28.4215 14.4746 28.4782 14.6656 28.4964 14.862C28.5145 15.0585 28.4936 15.2566 28.4351 15.445C28.3765 15.6334 28.2813 15.8084 28.155 15.96L21.435 24L27.915 32.055C28.0396 32.2084 28.1327 32.385 28.1888 32.5745C28.245 32.764 28.2631 32.9627 28.2422 33.1593C28.2213 33.3558 28.1618 33.5463 28.067 33.7197C27.9722 33.8932 27.8441 34.0462 27.69 34.17C27.5348 34.3066 27.3531 34.4096 27.1562 34.4725C26.9593 34.5355 26.7515 34.5571 26.5459 34.536C26.3402 34.5149 26.1412 34.4515 25.9612 34.3498C25.7812 34.2481 25.6242 34.1103 25.5 33.945L18.255 24.945C18.0344 24.6766 17.9138 24.3399 17.9138 23.9925C17.9138 23.6451 18.0344 23.3084 18.255 23.04L25.755 14.04C25.9055 13.8585 26.0967 13.715 26.313 13.6212C26.5293 13.5273 26.7647 13.4858 27 13.5Z" fill="#090505"/>
</svg>
