<svg width="48" height="48" viewBox="0 0 48 48" fill="none" xmlns="http://www.w3.org/2000/svg">
<circle cx="24" cy="24" r="24" fill="#090505"/>
<path d="M21 34.5C20.6495 34.5007 20.3098 34.3786 20.04 34.155C19.8881 34.0291 19.7625 33.8744 19.6705 33.6999C19.5785 33.5254 19.5218 33.3344 19.5036 33.138C19.4855 32.9415 19.5064 32.7434 19.5649 32.555C19.6235 32.3666 19.7187 32.1916 19.845 32.04L26.565 24L20.085 15.945C19.9604 15.7916 19.8673 15.615 19.8112 15.4255C19.755 15.236 19.7369 15.0373 19.7578 14.8407C19.7787 14.6442 19.8382 14.4537 19.933 14.2803C20.0278 14.1068 20.1559 13.9538 20.31 13.83C20.4652 13.6934 20.6469 13.5904 20.8438 13.5275C21.0407 13.4645 21.2485 13.4429 21.4541 13.464C21.6598 13.4851 21.8588 13.5485 22.0388 13.6502C22.2188 13.7519 22.3758 13.8897 22.5 14.055L29.745 23.055C29.9656 23.3234 30.0862 23.6601 30.0862 24.0075C30.0862 24.3549 29.9656 24.6916 29.745 24.96L22.245 33.96C22.0945 34.1415 21.9033 34.285 21.687 34.3788C21.4707 34.4727 21.2353 34.5142 21 34.5Z" fill="white"/>
</svg>
