<svg width="24" height="24" viewBox="0 0 24 24" fill="none" xmlns="http://www.w3.org/2000/svg">
<path d="M7.539 21.501C16.596 21.501 21.5505 13.9965 21.5505 7.50004C21.5505 7.29004 21.5505 7.07704 21.5415 6.86704C22.5061 6.16877 23.3386 5.30427 24 4.31404C23.099 4.71132 22.1441 4.97315 21.1665 5.09104C22.1963 4.4755 22.9676 3.50699 23.337 2.36554C22.3695 2.93873 21.3105 3.3411 20.2065 3.55504C19.4643 2.76458 18.4821 2.24092 17.4121 2.06518C16.3421 1.88944 15.2441 2.07142 14.288 2.58295C13.3319 3.09447 12.5712 3.90698 12.1237 4.89463C11.6761 5.88228 11.5668 6.98994 11.8125 8.04604C9.85461 7.94787 7.93922 7.43924 6.19056 6.55315C4.4419 5.66707 2.89903 4.42331 1.662 2.90254C1.03401 3.98716 0.842361 5.27014 1.12597 6.49094C1.40958 7.71174 2.14718 8.77883 3.189 9.47554C2.40831 9.44902 1.64478 9.23938 0.96 8.86354V8.93104C0.961346 10.0673 1.35496 11.1682 2.07431 12.0477C2.79366 12.9272 3.79462 13.5314 4.908 13.758C4.48539 13.8745 4.04884 13.9325 3.6105 13.9305C3.30148 13.9315 2.99307 13.9028 2.6895 13.845C3.00418 14.8231 3.61691 15.6783 4.44187 16.2908C5.26683 16.9032 6.2627 17.2423 7.29 17.2605C5.54483 18.6312 3.3891 19.3746 1.17 19.371C0.778981 19.3727 0.388235 19.3501 0 19.3035C2.25227 20.7394 4.86795 21.5019 7.539 21.501Z" fill="#090505"/>
</svg>
