<svg width="140" height="41" viewBox="0 0 140 41" fill="none" xmlns="http://www.w3.org/2000/svg">
<path d="M42.398 41C41.3659 41 40.208 40.8619 38.9241 40.5856C37.6403 40.3093 36.5075 39.9146 35.5257 39.4015L36.5453 35.2966C37.4263 35.6913 38.3577 36.0005 39.3395 36.2242C40.3338 36.461 41.2589 36.5794 42.1148 36.5794C43.5875 36.5794 44.6636 36.1518 45.3433 35.2966C46.0356 34.4414 46.3817 33.2508 46.3817 31.7246V30.3234C45.7775 31.126 45.0664 31.7378 44.2483 32.1588C43.4301 32.5798 42.4924 32.7903 41.4352 32.7903C39.7737 32.7903 38.3451 32.3561 37.1494 31.4878C35.9537 30.6063 35.0412 29.3762 34.4118 27.7974C33.7825 26.2186 33.4678 24.3832 33.4678 22.2913V21.8769C33.4678 19.6271 33.7825 17.6602 34.4118 15.9762C35.0412 14.2921 35.9411 12.9831 37.1116 12.0489C38.2822 11.1017 39.6856 10.628 41.3219 10.628C42.5428 10.628 43.5938 10.8977 44.4748 11.4372C45.3559 11.9634 46.1048 12.7199 46.7215 13.7067L47.118 11.0227H51.9135V31.7443C51.9135 33.6257 51.5296 35.2572 50.7618 36.6386C50.0066 38.02 48.9179 39.0923 47.4956 39.8554C46.0733 40.6185 44.3741 41 42.398 41ZM42.9833 28.3105C43.7637 28.3105 44.4371 28.1526 45.0035 27.8368C45.5698 27.5079 46.0293 27.0343 46.3817 26.4159V17.1405C46.0293 16.4959 45.5636 15.9959 44.9846 15.6407C44.4182 15.2855 43.7574 15.1078 43.0022 15.1078C42.0582 15.1078 41.2904 15.3973 40.6988 15.9762C40.1073 16.5419 39.673 17.3313 39.3961 18.3444C39.1192 19.3443 38.9808 20.5218 38.9808 21.8769V22.2913C38.9808 24.1596 39.2891 25.6331 39.9059 26.712C40.5226 27.7776 41.5484 28.3105 42.9833 28.3105ZM51.2149 15.1868L48.8172 11.0227H54.3112V14.4961L51.2149 15.1868Z" fill="black"/>
<path d="M56.4258 32.3759V28.9223L59.069 28.3302V15.0881L56.1426 14.4961V11.0227H64.2043L64.412 13.6672L64.4498 14.1408C64.9532 12.9831 65.5763 12.1081 66.3189 11.5161C67.0615 10.9241 67.9488 10.628 68.9809 10.628C69.3082 10.628 69.6669 10.6609 70.0571 10.7267C70.4473 10.7793 70.7934 10.8517 71.0955 10.9438L70.5102 16.2525L67.7726 16.0946C66.9923 16.0551 66.3566 16.1933 65.8658 16.509C65.3875 16.8248 64.9595 17.2787 64.5819 17.8707V28.3302L67.2251 28.9223V32.3759H56.4258Z" fill="black"/>
<path d="M79.195 32.7903C77.1685 32.7903 75.5574 32.2246 74.3617 31.0931C73.166 29.9485 72.5681 28.396 72.5681 26.4357C72.5681 25.0937 72.9143 23.9162 73.6065 22.9031C74.3114 21.8901 75.3435 21.0941 76.7028 20.5152C78.0748 19.9363 79.7614 19.6469 81.7626 19.6469H84.4625V18.0681C84.4625 17.0419 84.173 16.213 83.594 15.5815C83.0276 14.9368 82.1717 14.6145 81.0263 14.6145C80.4347 14.6145 79.8998 14.6934 79.4215 14.8513C78.9558 14.996 78.5342 15.2065 78.1566 15.4828L77.7223 18.3049H73.7576L73.682 12.7594C74.7519 12.1279 75.9099 11.6148 77.1559 11.2201C78.402 10.8254 79.7928 10.628 81.3284 10.628C83.9968 10.628 86.105 11.2793 87.6532 12.5818C89.2013 13.8711 89.9754 15.7196 89.9754 18.1273V26.929C89.9754 27.2185 89.9754 27.5079 89.9754 27.7974C89.988 28.0737 90.0132 28.3434 90.0509 28.6065L92.1843 28.9223V32.3759H85.3498C85.2114 32.0075 85.0729 31.6128 84.9345 31.1918C84.796 30.7708 84.6953 30.3497 84.6324 29.9287C83.9779 30.7971 83.2038 31.4944 82.3102 32.0206C81.4291 32.5337 80.3907 32.7903 79.195 32.7903ZM80.6676 28.5276C81.4354 28.5276 82.1654 28.3499 82.8577 27.9947C83.5499 27.6263 84.0849 27.1461 84.4625 26.5541V23.1794H81.7438C80.5354 23.1794 79.6166 23.4689 78.9873 24.0477C78.3705 24.6266 78.0622 25.3239 78.0622 26.1396C78.0622 26.9027 78.2887 27.4948 78.7419 27.9158C79.2076 28.3236 79.8495 28.5276 80.6676 28.5276Z" fill="black"/>
<path d="M94.0157 40.5856V37.1122L96.6778 36.5202V15.0881L93.7325 14.4961V11.0227H101.738L102.002 13.5093C102.606 12.5884 103.336 11.8779 104.192 11.378C105.048 10.878 106.067 10.628 107.251 10.628C108.899 10.628 110.309 11.1017 111.48 12.0489C112.65 12.9831 113.544 14.2921 114.161 15.9762C114.79 17.6602 115.105 19.6271 115.105 21.8769V22.2913C115.105 24.3964 114.79 26.2383 114.161 27.8171C113.544 29.3827 112.644 30.6063 111.461 31.4878C110.29 32.3561 108.874 32.7903 107.213 32.7903C106.118 32.7903 105.149 32.5864 104.305 32.1785C103.475 31.7575 102.763 31.1457 102.172 30.3432V36.5202L104.834 37.1122V40.5856H94.0157ZM105.57 28.3697C106.98 28.3697 107.999 27.8237 108.629 26.7317C109.271 25.6397 109.592 24.1596 109.592 22.2913V21.8769C109.592 20.5218 109.447 19.3443 109.157 18.3444C108.868 17.3313 108.421 16.5419 107.817 15.9762C107.225 15.3973 106.464 15.1078 105.532 15.1078C104.777 15.1078 104.11 15.2855 103.531 15.6407C102.965 15.9959 102.512 16.5024 102.172 17.1603V26.5146C102.512 27.1198 102.965 27.5803 103.531 27.896C104.11 28.2118 104.79 28.3697 105.57 28.3697Z" fill="black"/>
<path d="M116.879 32.3759V28.9223L119.541 28.3302V5.65484L116.596 5.0628V1.58946H125.035V13.7461C125.677 12.7594 126.47 11.9963 127.414 11.4569C128.371 10.9043 129.453 10.628 130.662 10.628C132.713 10.628 134.337 11.3451 135.533 12.7791C136.741 14.2 137.345 16.4038 137.345 19.3903V28.3302L139.988 28.9223V32.3759H129.453V28.9223L131.832 28.3302V19.3508C131.832 17.8115 131.555 16.7195 131.001 16.0749C130.448 15.4302 129.636 15.1078 128.566 15.1078C127.823 15.1078 127.144 15.2723 126.527 15.6012C125.923 15.917 125.426 16.384 125.035 17.0024V28.3302L127.414 28.9223V32.3759H116.879Z" fill="black"/>
<path d="M19.0081 1.82733C19.282 1.32212 19.0081 0.648501 18.4442 0.58114C14.2232 -0.0419561 9.90545 1.05267 6.45773 3.71346C6.15162 3.96607 6.05496 4.4376 6.2644 4.80809L11.1138 13.5988C11.4199 14.1545 12.1932 14.1545 12.5154 13.5988L19.0081 1.82733ZM31.0751 11.039C29.4962 6.87946 26.3707 3.52821 22.4558 1.77681C22.0853 1.60841 21.6503 1.77681 21.4408 2.1473L16.5915 10.9212C16.2854 11.4601 16.672 12.1674 17.3003 12.1674H30.3179C30.8818 12.1674 31.2846 11.5779 31.0751 11.039ZM31.1879 13.8514H21.1992C20.5869 13.8514 20.1842 14.5587 20.5064 15.1144L27.3696 27.5595C27.6435 28.0647 28.3363 28.1489 28.6907 27.6942C31.494 24.023 32.6862 19.2235 31.9934 14.5755C31.9667 14.3729 31.8701 14.1875 31.7218 14.0541C31.5734 13.9208 31.3835 13.8487 31.1879 13.8514ZM3.49333 6.76158C2.11042 8.59393 1.10346 10.7044 0.535232 12.9615C-0.0329972 15.2185 -0.150311 17.5737 0.190606 19.8803C0.238939 20.2844 0.593377 20.5876 0.996149 20.5876H10.9849C11.5971 20.5876 11.9999 19.8803 11.6776 19.3245L4.81442 6.8963C4.52443 6.39109 3.83166 6.30688 3.49333 6.76158ZM1.10892 23.3999C2.68779 27.5595 5.81329 30.9107 9.72823 32.6621C10.0988 32.8306 10.5338 32.6621 10.7432 32.2917L15.5926 23.5178C15.6621 23.39 15.6985 23.2455 15.6982 23.0985C15.6979 22.9515 15.661 22.8071 15.5911 22.6796C15.5211 22.5521 15.4206 22.4458 15.2994 22.3713C15.1781 22.2968 15.0404 22.2567 14.8998 22.2548H1.86613C1.30225 22.2716 0.899484 22.861 1.10892 23.3999ZM13.7237 33.8747C17.9448 34.4978 22.2625 33.4031 25.7102 30.7423C26.0324 30.4897 26.1291 30.0014 25.9196 29.6309L21.0703 20.8402C20.9981 20.7131 20.8955 20.6079 20.7726 20.5348C20.6498 20.4618 20.5108 20.4233 20.3695 20.4233C20.2281 20.4233 20.0892 20.4618 19.9663 20.5348C19.8434 20.6079 19.7408 20.7131 19.6686 20.8402L13.1598 32.6116C12.886 33.1168 13.176 33.7905 13.7237 33.8747Z" fill="black"/>
</svg>
